<mxfile host="app.diagrams.net" modified="2024-05-19T17:28:40.522Z" agent="Mozilla/5.0 (Windows NT 10.0; Win64; x64) AppleWebKit/537.36 (KHTML, like Gecko) Chrome/125.0.0.0 Safari/537.36" version="24.4.4" etag="Lr4QxFFbPGsu89qRPK4P" type="github">
  <diagram name="Pagina-1" id="TMldGiB5t04RclD00jVZ">
    <mxGraphModel>
      <root>
        <mxCell id="0" />
        <mxCell id="1" parent="0" />
      </root>
    </mxGraphModel>
  </diagram>
</mxfile>
